<svg width="82" height="75" viewBox="0 0 82 75" fill="none" xmlns="http://www.w3.org/2000/svg">
<path d="M26.7175 2.62939C34.6046 2.62939 40.9984 9.02318 40.9984 16.9102L40.998 55.7328C40.998 64.7592 33.6804 72.0768 24.6537 72.0768C15.627 72.0768 8.30936 64.7592 8.30936 55.7328C8.30936 55.2702 8.32862 54.8124 8.3663 54.3594C4.96469 50.7051 2.81848 43.5571 2.81848 37.593C2.81848 29.466 6.80342 21.5643 12.5197 18.4583C12.4648 17.9498 12.4367 17.4333 12.4367 16.9102C12.4367 9.02318 18.8305 2.62939 26.7175 2.62939Z" stroke="black" stroke-width="5" stroke-linecap="round" stroke-linejoin="round"/>
<path d="M20.0664 28.1646C17.9695 27.6865 13.2178 24.5703 12.5009 18.4951" stroke="black" stroke-width="5" stroke-linecap="round" stroke-linejoin="round"/>
<path d="M28.8202 44.1887C37.3852 43.2328 40.7794 34.1938 41.0001 30.5171" stroke="black" stroke-width="5" stroke-linecap="round" stroke-linejoin="round"/>
<path d="M12.7369 45.791C10.6036 47.4755 8.90263 51.2929 8.35153 54.351" stroke="black" stroke-width="5" stroke-linecap="round" stroke-linejoin="round"/>
<path d="M55.281 2.62939C47.3939 2.62939 41.0002 9.02318 41.0002 16.9102L41.0005 55.7328C41.0005 64.7592 48.3181 72.0768 57.3448 72.0768C66.3716 72.0768 73.6892 64.7592 73.6892 55.7328C73.6892 55.2702 73.67 54.8124 73.6322 54.3594C77.0336 50.7051 79.1798 43.5571 79.1798 37.593C79.1798 29.466 75.1952 21.5643 69.479 18.4583C69.5336 17.9498 69.5618 17.4333 69.5618 16.9102C69.5618 9.02318 63.1682 2.62939 55.281 2.62939Z" stroke="black" stroke-width="5" stroke-linecap="round" stroke-linejoin="round"/>
<path d="M61.9322 28.1646C64.0292 27.6865 68.7806 24.5703 69.4976 18.4951" stroke="black" stroke-width="5" stroke-linecap="round" stroke-linejoin="round"/>
<path d="M53.1783 44.1887C44.6133 43.2328 41.2191 34.1938 40.9984 30.5171" stroke="black" stroke-width="5" stroke-linecap="round" stroke-linejoin="round"/>
<path d="M69.2618 45.791C71.3948 47.4755 73.0958 51.2929 73.6472 54.351" stroke="black" stroke-width="5" stroke-linecap="round" stroke-linejoin="round"/>
</svg>
