<svg width="45" height="45" viewBox="0 0 45 45" fill="none" xmlns="http://www.w3.org/2000/svg">
<path d="M30.5357 33.75V40.1786C30.5357 41.031 30.1971 41.8487 29.5943 42.4514C28.9915 43.0541 28.174 43.3929 27.3215 43.3929H4.82146C3.96897 43.3929 3.15142 43.0541 2.54862 42.4514C1.94583 41.8487 1.60718 41.031 1.60718 40.1786V4.82143C1.60718 3.96894 1.94583 3.15139 2.54862 2.54859C3.15142 1.94579 3.96897 1.60715 4.82146 1.60715H27.3215C28.174 1.60715 28.9915 1.94579 29.5943 2.54859C30.1971 3.15139 30.5357 3.96894 30.5357 4.82143V11.25" stroke="black" stroke-width="5" stroke-linecap="round" stroke-linejoin="round"/>
<path d="M43.3929 22.5H17.6786" stroke="black" stroke-width="5" stroke-linecap="round" stroke-linejoin="round"/>
<path d="M24.1072 16.0714L17.6786 22.5L24.1072 28.9286" stroke="black" stroke-width="5" stroke-linecap="round" stroke-linejoin="round"/>
</svg>
