<svg width="341" height="304" viewBox="0 0 341 304" fill="none" xmlns="http://www.w3.org/2000/svg">
<path d="M165.764 164.308H175.236V269.863H165.764V164.308Z" stroke="black" stroke-width="2" stroke-linecap="round" stroke-linejoin="round"/>
<path d="M103.479 79.2553L150.367 121.055M190.553 121.051L237.436 79.2553M237.436 198.677L190.553 156.881M150.367 156.881L103.479 198.677" stroke="black" stroke-width="2" stroke-linecap="round" stroke-linejoin="round"/>
<path d="M142.041 138.966H99.4157M170.457 75.6327V113.633M241.499 138.966H198.874M61.9814 98.914L93.0314 110.382M61.9862 179.064L93.0361 167.593M125.568 235.727L138.422 208.042M215.469 235.706L202.597 208.025M279.018 179.005L247.959 167.555M278.971 98.8633L247.931 110.344M215.36 42.2222L202.521 69.9116M125.469 42.3236L138.37 69.9918" stroke="black" stroke-width="2" stroke-miterlimit="10" stroke-linecap="round"/>
<path d="M170.5 144.886L178.551 150.016L175.563 141.605L183.524 136.369L173.63 136.302L170.5 127.933L167.369 136.302L157.476 136.369L165.437 141.605L162.448 150.016L170.5 144.886Z" fill="black" stroke="black" stroke-width="2" stroke-linejoin="round"/>
<path d="M165.764 164.308H175.236V269.863H165.764V164.308Z" stroke="#D22F27" stroke-width="2" stroke-linecap="round" stroke-linejoin="round"/>
<path d="M103.479 79.2553L150.367 121.055" stroke="#E27022" stroke-width="2" stroke-linecap="round" stroke-linejoin="round"/>
<path d="M190.553 121.051L237.435 79.2553" stroke="#61B2E4" stroke-width="2" stroke-linecap="round" stroke-linejoin="round"/>
<path d="M237.435 198.677L190.553 156.881" stroke="#F1B31C" stroke-width="2" stroke-linecap="round" stroke-linejoin="round"/>
<path d="M150.367 156.881L103.479 198.677" stroke="#E67A94" stroke-width="2" stroke-linecap="round" stroke-linejoin="round"/>
<path d="M142.041 138.966H99.416" stroke="#D0CFCE" stroke-width="2" stroke-miterlimit="10" stroke-linecap="round"/>
<path d="M170.457 75.6327V113.633" stroke="#8967AA" stroke-width="2" stroke-miterlimit="10" stroke-linecap="round"/>
<path d="M241.499 138.966H198.874" stroke="#EA5A47" stroke-width="2" stroke-miterlimit="10" stroke-linecap="round"/>
<path d="M61.9814 98.914L93.0314 110.382" stroke="#B399C8" stroke-width="2" stroke-miterlimit="10" stroke-linecap="round"/>
<path d="M61.9863 179.064L93.0363 167.593" stroke="#92D3F5" stroke-width="2" stroke-miterlimit="10" stroke-linecap="round"/>
<path d="M125.568 235.727L138.422 208.042" stroke="#B1CC33" stroke-width="2" stroke-miterlimit="10" stroke-linecap="round"/>
<path d="M215.469 235.706L202.597 208.025" stroke="#FFA7C0" stroke-width="2" stroke-miterlimit="10" stroke-linecap="round"/>
<path d="M279.018 179.005L247.959 167.555" stroke="#B399C8" stroke-width="2" stroke-miterlimit="10" stroke-linecap="round"/>
<path d="M278.971 98.8633L247.931 110.344" stroke="#B1CC33" stroke-width="2" stroke-miterlimit="10" stroke-linecap="round"/>
<path d="M215.36 42.2222L202.521 69.9116" stroke="#A57939" stroke-width="2" stroke-miterlimit="10" stroke-linecap="round"/>
<path d="M125.469 42.3236L138.37 69.9918" stroke="#FCEA2B" stroke-width="2" stroke-miterlimit="10" stroke-linecap="round"/>
<path d="M170.5 144.886L178.551 150.016L175.563 141.605L183.524 136.369L173.63 136.302L170.5 127.933L167.369 136.302L157.476 136.369L165.437 141.605L162.448 150.016L170.5 144.886Z" fill="#D22F27" stroke="#D22F27" stroke-width="2" stroke-linejoin="round"/>
</svg>
