<svg width="68" height="68" viewBox="0 0 68 68" fill="none" xmlns="http://www.w3.org/2000/svg">
<g id="user-circle-single--circle-geometric-human-person-single-user" clip-path="url(#clip0_46_109)">
<g id="user-circle-single--circle-geometric-human-person-single-user_2">
<path id="Vector" d="M34 38.8572C40.7063 38.8572 46.1429 33.4206 46.1429 26.7143C46.1429 20.008 40.7063 14.5715 34 14.5715C27.2937 14.5715 21.8571 20.008 21.8571 26.7143C21.8571 33.4206 27.2937 38.8572 34 38.8572Z" stroke="black" stroke-width="5" stroke-linecap="round" stroke-linejoin="round"/>
<path id="Vector_2" d="M13.2599 57.8C15.4274 54.2422 18.4736 51.3017 22.1058 49.2617C25.738 47.2211 29.8339 46.1494 33.9999 46.1494C38.1659 46.1494 42.2619 47.2211 45.894 49.2617C49.5264 51.3017 52.5723 54.2422 54.74 57.8" stroke="black" stroke-width="5" stroke-linecap="round" stroke-linejoin="round"/>
<path id="Vector_3" d="M34 65.5714C51.4367 65.5714 65.5714 51.4367 65.5714 34C65.5714 16.5636 51.4367 2.42859 34 2.42859C16.5636 2.42859 2.42857 16.5636 2.42857 34C2.42857 51.4367 16.5636 65.5714 34 65.5714Z" stroke="black" stroke-width="5" stroke-linecap="round" stroke-linejoin="round"/>
</g>
</g>
<defs>
<clipPath id="clip0_46_109">
<rect width="68" height="68" fill="white"/>
</clipPath>
</defs>
</svg>
